<svg
 xmlns="http://www.w3.org/2000/svg"
 xmlns:xlink="http://www.w3.org/1999/xlink"
 width="39px" height="40px">
<path fill-rule="evenodd"  fill="rgb(255, 255, 255)"
 d="M2.543,40.000 L-0.000,40.000 L-0.000,37.447 L-0.000,2.553 L-0.000,0.851 L-0.000,-0.000 L36.457,-0.000 L39.000,-0.000 L39.000,2.553 L39.000,37.447 L39.000,39.149 L39.000,40.000 L2.543,40.000 ZM36.457,2.553 L2.543,2.553 L2.543,37.447 L36.457,37.447 L36.457,2.553 ZM33.913,11.064 L5.087,11.064 L5.087,8.511 L33.913,8.511 L33.913,11.064 ZM33.913,21.277 L5.087,21.277 L5.087,18.723 L33.913,18.723 L33.913,21.277 ZM33.913,31.489 L5.087,31.489 L5.087,28.936 L33.913,28.936 L33.913,31.489 Z"/>
</svg>
